<svg width="256" height="256" xmlns="http://www.w3.org/2000/svg" xmlns:xlink="http://www.w3.org/1999/xlink" overflow="hidden"><defs><clipPath id="clip0"><rect x="841" y="268" width="256" height="256"/></clipPath></defs><g clip-path="url(#clip0)" transform="translate(-841 -268)"><path d="M1021 436.533C1020.29 436.556 1019.61 436.83 1019.08 437.307 1008.84 444.956 999.105 453.258 989.933 462.16 986.253 465.84 982.92 469.2 979.853 472.56 976.498 466.226 974.741 459.168 974.733 452 974.272 428.901 992.621 409.8 1015.72 409.333 1037.24 409.893 1071.37 400.107 1071.37 400.107 1071.37 437.653 1067.43 471.093 1036.07 489.253 1029.93 492.961 1022.89 494.907 1015.72 494.88 1005.87 494.905 996.365 491.265 989.053 484.667 981.293 493.333 976.067 500.667 976.067 504.053L967.427 504.053C967.427 498.88 971.747 491.547 978.413 483.44 979.16 482.533 980.76 480.773 980.76 480.773L1024.07 439.707C1024.16 438.045 1022.88 436.626 1021.22 436.537 1021.15 436.533 1021.07 436.532 1021 436.533Z" fill="#FFFFFF" fill-opacity="0.7"/><path d="M886.787 458.48C888.799 462.358 892.649 464.941 897 465.333L945 465.333 945 486.667 897 486.667C884.841 486.446 873.717 479.771 867.8 469.147 862.132 458.892 862.625 446.338 869.08 436.56L896.813 388.56 878.52 377.893 923.16 365.947 935.107 410.587 915.667 399.413 887.827 447.68C885.451 450.788 885.047 454.976 886.787 458.48Z" fill="#FFFFFF" fill-opacity="0.7"/><path d="M924.52 348.373 946.84 306.693C952.695 296.16 963.829 289.657 975.88 289.733 987.597 289.974 998.215 296.69 1003.45 307.173L1031.19 355.173 1049.48 344.507 1037.53 389.28 993 377.333 1012.41 366.107 984.44 317.813C982.921 314.207 979.492 311.769 975.587 311.52 971.474 311.724 967.751 314.018 965.72 317.6L943.373 359.28Z" fill="#FFFFFF" fill-opacity="0.7"/></g></svg>